# xmcd
#
# Track frame offsets: 
#        150
#        4461
#        23105
#        57136
#        85210
#        138373
#        170118
#        220156
#        261845
#
# Disc length: 4003 seconds
#
# Revision: 0
# Processed by: cddbd v1.5.2PL0 Copyright (c) Steve Scherf et al.
# Submitted via: ExactAudioCopy v0.99pb4
#
DISCID=7b0fa109
DTITLE=Cream Remasters - Live In Europe cd2
DYEAR=1967
DGENRE=Blues
TTITLE0=Introduction (Sweden 14 Nov 1967)
TTITLE1=Tales of Brave Ulysses (Sweden 14 Nov 1967)
TTITLE2=Sunshine of Your Love (Sweden 14 Nov 1967)
TTITLE3=Sleepy Time Time (Sweden 14 Nov 1967)
TTITLE4=Stepping Out (Sweden 14 Nov 1967)
TTITLE5=Traintime (Sweden 14 Nov 1967)
TTITLE6=Toad (Sweden 14 Nov 1967)
TTITLE7=I'm So Glad (Sweden 14 Nov 1967)
TTITLE8=Spoonful (Sweden 14 Nov 1967)
EXTD=
EXTT0=
EXTT1=
EXTT2=
EXTT3=
EXTT4=
EXTT5=
EXTT6=
EXTT7=
EXTT8=
PLAYORDER=
